<svg aria-hidden="true" style="position: absolute; width: 0; height: 0; overflow: hidden;" version="1.1" xmlns="http://www.w3.org/2000/svg" xmlns:xlink="http://www.w3.org/1999/xlink">
<defs>
<symbol id="icon-package" viewBox="0 0 32 32">
<title>package</title>
<path d="M20.035 9.151c0.352 0 0.638-0.285 0.638-0.638s-0.286-0.638-0.638-0.638h-8.766c-0.352 0-0.638 0.285-0.638 0.638s0.286 0.638 0.638 0.638h8.766z"></path>
<path d="M28.828 7.874h-4.349c-0.352 0-0.638 0.285-0.638 0.638s0.286 0.638 0.638 0.638h3.71v21.573h-24.379v-21.573h3.498c0.352 0 0.638-0.285 0.638-0.638s-0.286-0.638-0.638-0.638h-4.136c-0.352 0-0.638 0.285-0.638 0.638v22.849c0 0.353 0.286 0.638 0.638 0.638h25.656c0.352 0 0.638-0.285 0.638-0.638v-22.849c0-0.353-0.285-0.638-0.638-0.638z"></path>
<path d="M22.194 10.586c0.352 0 0.638-0.285 0.638-0.638v-4.655c-0-2.918-3.151-5.293-7.038-5.293-3.873 0-7.022 2.375-7.022 5.293v4.655c0 0.353 0.286 0.638 0.638 0.638s0.638-0.285 0.638-0.638v-4.655c0-2.215 2.578-4.016 5.761-4.016 3.168 0 5.745 1.802 5.745 4.016v4.655c-0 0.353 0.285 0.638 0.638 0.638z"></path>
<path d="M7.767 11.589c0 0.905 0.737 1.642 1.643 1.642s1.643-0.737 1.643-1.642c0-0.353-0.286-0.638-0.638-0.638s-0.638 0.285-0.638 0.638c0 0.201-0.164 0.365-0.366 0.365s-0.366-0.164-0.366-0.365c0-0.353-0.286-0.638-0.638-0.638s-0.638 0.285-0.638 0.638z"></path>
<path d="M22.194 13.231c0.906 0 1.643-0.737 1.643-1.642 0-0.353-0.286-0.638-0.638-0.638s-0.638 0.285-0.638 0.638c0 0.201-0.164 0.365-0.366 0.365s-0.366-0.164-0.366-0.365c0-0.353-0.286-0.638-0.638-0.638s-0.638 0.285-0.638 0.638c0 0.905 0.737 1.642 1.643 1.642z"></path>
</symbol>
<symbol id="icon-Arrow" viewBox="0 0 19 32">
<title>Arrow</title>
<path d="M1.038 14.507c-0.822 0.822-0.822 2.155 0 2.977l13.398 13.398c0.822 0.822 2.155 0.822 2.977 0s0.822-2.155 0-2.977l-11.909-11.909 11.909-11.909c0.822-0.822 0.822-2.155 0-2.977s-2.155-0.822-2.977 0l-13.398 13.398zM3.368 13.891h-0.842v4.211h0.842v-4.211z"></path>
</symbol>
</defs>
</svg>
